# xmcd
#
# Track frame offsets:
#	150
#	24170
#	41553
#	58946
#	82049
#	99556
#	115235
#	132006
#	145719
#	163871
#	176640
#
# Disc length: 2653 seconds
#
# Revision: 0
# Processed by: cddbd v1.5.2PL0 Copyright (c) Steve Scherf et al.
# Submitted via: EasyCDDAExtractor 16.0.6.1
#
DISCID=900a5b0b
DTITLE=Θαλασσινός Παντελής - Αστρανάμματα-Π. Θαλασσινός
DYEAR=1996
DGENRE=Έντεχνη νεώτερη
TTITLE0=Τα σμυρναίϊκα τραγούδια [Π. Θαλασσινού-Ηλία Κατσούλη]
TTITLE1=Ατλαντίδα [Π. Θαλασσινού-Λίτσας Μπεσκάκη]
TTITLE2=Όλα με τη γλώσσα της χαράς [Π. Θαλασσινού-ποίηση Φώτη Αγγουλέ]
TTITLE3=Τα θαύματα [Π. Θαλασσινού-Ηλία Κατσούλη]
TTITLE4=Η λίμνη και ο ποταμός [Π. Θαλασσινού-ποίηση Λευτ. Σταυρινουδάκη]
TTITLE5=Όλα μαύρα [μουσ. κ στ. Παντελή Θαλασσινού]
TTITLE6=Στα μάγια και στα όνειρα [Π. Θαλασσινού-Ηλία Κατσούλη]
TTITLE7=Κεμεντζές και μπουλγάρι [Π. Θαλασσινού-Ηλία Κατσούλη]
TTITLE8=Κήποι με νερά [Π. Θαλασσινού-Ηλία Κατσούλη]
TTITLE9=Ποιος τρελλός [Π. Θαλασσινού-Ηλία Κατσούλη]
TTITLE10=Κράτα για το τέλος [Π. Θαλασσινού-Ηλία Κατσούλη]
EXTD=\n
EXTT0=
EXTT1=
EXTT2=
EXTT3=
EXTT4=
EXTT5=
EXTT6=
EXTT7=
EXTT8=
EXTT9=
EXTT10=
PLAYORDER=
